<svg xmlns="http://www.w3.org/2000/svg" width="60" height="60" viewBox="0 0 60 60"><rect width="100%" height="100%" fill="#0000FF"/><path fill="#FFFFFF" d="M13.995 32.43h3.94v-6.7h-2.57q-.08 1.38-.21 2.45-.14 1.08-.31 1.89-.18.81-.39 1.39-.22.58-.46.97m5.69 0h1.46v3.09q0 .22-.15.36t-.4.14h-1.05v-2.24h-6.9v1.74q0 .22-.16.36-.15.14-.4.14h-1.05v-3.59h1.03q.18-.09.36-.31.18-.21.35-.6.16-.39.32-.99.15-.6.27-1.46.13-.86.21-2.02.09-1.15.14-2.67h5.97zm4.56-.02h1.77q.48 0 .82-.11.33-.12.52-.31.2-.2.29-.46t.09-.55q0-.31-.1-.55t-.3-.42q-.21-.17-.54-.26t-.79-.09h-1.76zm1.49-6.68h-1.49v2.72h1.39q.9 0 1.35-.33.46-.32.46-1.03 0-.73-.41-1.05-.42-.31-1.3-.31m-3.24-1.35h3.24q.92 0 1.58.18.65.17 1.07.5.42.32.62.78.19.46.19 1.04 0 .33-.1.64-.09.3-.3.56-.2.27-.52.48-.31.21-.75.36 1.94.44 1.94 2.1 0 .6-.23 1.1-.23.51-.66.88-.44.36-1.08.57-.63.21-1.45.21h-3.55zm13.57 2.05v4.88q.5-.01.92-.21.41-.19.71-.52t.47-.77q.16-.44.16-.94t-.16-.94q-.17-.44-.47-.77t-.71-.52q-.42-.2-.92-.21m-1.66 4.88v-4.88q-.5.01-.92.21-.41.19-.71.52t-.46.77-.16.94.16.94.46.77.71.52q.42.2.92.21m1.66-7.33v1.1q.88.03 1.61.33.74.31 1.27.82.53.52.83 1.19.3.68.3 1.45t-.3 1.45-.83 1.19-1.27.82q-.73.31-1.61.33v1.12h-1.66v-1.12q-.87-.02-1.6-.33-.74-.31-1.27-.82t-.83-1.19-.3-1.45.3-1.45q.3-.67.83-1.18t1.27-.82q.73-.3 1.6-.34v-1.1zm11.45.4h1.45l-3.79 8.09q-.2.43-.43.7t-.49.43q-.26.15-.57.22-.3.06-.64.06-.47 0-.69-.09-.21-.08-.21-.24v-1.1h.51q.14 0 .29-.02.15-.03.29-.11.15-.07.29-.22.13-.14.25-.37l.37-.76-3.77-6.59h1.64q.23 0 .36.11.14.11.23.28l1.83 3.45q.15.28.27.56t.21.57q.17-.58.43-1.13l1.6-3.45q.07-.14.21-.27.14-.12.36-.12"/></svg>